<svg xmlns="http://www.w3.org/2000/svg" width="35.291" height="35.292" viewBox="0 0 35.291 35.292"><defs><style>.a{fill:none;stroke:#5bd3c7;stroke-width:1.5px;}.b{fill:#5ad3c7;}</style></defs><g transform="translate(0.775 0.85)"><g transform="translate(0 0)"><path class="a" d="M33.013,26.771l-3.732-2.488-3.318-2.212a1.47,1.47,0,0,0-1.974.32L21.936,25.03a1.462,1.462,0,0,1-1.867.387,23.9,23.9,0,0,1-6.675-5.144A24.075,24.075,0,0,1,8.25,13.6a1.462,1.462,0,0,1,.387-1.867l2.639-2.053A1.47,1.47,0,0,0,11.6,7.7L9.453,4.489,6.9.655A1.47,1.47,0,0,0,4.918.209L1.97,1.978A3.6,3.6,0,0,0,.334,4.1c-.806,2.939-.969,9.424,9.423,19.816S26.633,34.14,29.572,33.333A3.6,3.6,0,0,0,31.689,31.7l1.769-2.948A1.47,1.47,0,0,0,33.013,26.771Z" transform="translate(0 0)"/><path class="b" d="M283.062,62.953a9.879,9.879,0,0,1,9.868,9.868.581.581,0,0,0,1.161,0,11.041,11.041,0,0,0-11.029-11.029.58.58,0,1,0,0,1.161Z" transform="translate(-263.907 -57.729)"/><path class="b" d="M283.061,115.917a6.393,6.393,0,0,1,6.385,6.385.581.581,0,0,0,1.161,0,7.555,7.555,0,0,0-7.546-7.546.58.58,0,0,0,0,1.161Z" transform="translate(-263.906 -107.21)"/><path class="b" d="M283.062,168.884a2.906,2.906,0,0,1,2.9,2.9.58.58,0,1,0,1.161,0,4.068,4.068,0,0,0-4.063-4.063.58.58,0,1,0,0,1.161Z" transform="translate(-263.907 -156.694)"/></g></g></svg>