<svg xmlns="http://www.w3.org/2000/svg" width="33.372" height="25.017" viewBox="0 0 33.372 25.017"><defs><style>.a{fill:#5ad3c7;}</style></defs><g transform="translate(0 0)"><path class="a" d="M47.083,22.55H19.962a3.122,3.122,0,0,0-3.122,3.122V44.437a3.13,3.13,0,0,0,3.122,3.13h27.12a3.137,3.137,0,0,0,3.13-3.13V25.672A3.13,3.13,0,0,0,47.083,22.55Zm0,2.082a1.07,1.07,0,0,1,.4.081L33.53,36.806,19.6,24.712a1.033,1.033,0,0,1,.4-.081Zm0,20.846H19.962a1.041,1.041,0,0,1-1.041-1.041V26.919L32.848,39.005a1.034,1.034,0,0,0,1.363,0l13.927-12.05V44.473a1.033,1.033,0,0,1-1.055,1Z" transform="translate(-16.84 -22.55)"/></g></svg>