<svg id="Facebook" xmlns="http://www.w3.org/2000/svg" width="58.484" height="58.484" viewBox="0 0 58.484 58.484">
  <path id="Path_30" data-name="Path 30" d="M28.764,0A29.242,29.242,0,1,0,58.473,28.763,29.242,29.242,0,0,0,28.764,0ZM36.1,19.787H33.558c-2,0-2.4,1.031-2.4,2.457l.072,3.428,4.518-.084-.539,4.974-3.895.072.216,16.107-4.974.084-.192-16.059-4.051.084-.084-4.962,4.051-.084L26.211,21.9c-.084-4.242,2.4-6.6,6.076-6.675A32.67,32.67,0,0,1,36,15.353Z" transform="translate(0.007 0.003)" fill="#fff"/>
</svg>
