<svg id="Insta" xmlns="http://www.w3.org/2000/svg" width="58.484" height="58.484" viewBox="0 0 58.484 58.484">
  <path id="Path_32" data-name="Path 32" d="M24.86,20.91a4.608,4.608,0,1,0,4.6,4.608,4.608,4.608,0,0,0-4.6-4.608Z" transform="translate(4.02 4.172)" fill="#fff"/>
  <path id="Path_33" data-name="Path 33" d="M31.528,14.75H20.519a6.441,6.441,0,0,0-6.429,6.429V32.2a6.441,6.441,0,0,0,6.429,6.429H31.528A6.429,6.429,0,0,0,37.956,32.2V21.179a6.429,6.429,0,0,0-6.429-6.429Zm-5.5,19.286a7.347,7.347,0,1,1,7.335-7.347,7.347,7.347,0,0,1-7.335,7.347Zm7.9-14.313a.416.416,0,1,1,0,.1Z" transform="translate(2.814 3.047)" fill="#fff"/>
  <path id="Path_34" data-name="Path 34" d="M29.244,0a29.242,29.242,0,1,0,29.23,29.238A29.242,29.242,0,0,0,29.244,0ZM43.626,35.21A9.228,9.228,0,0,1,34.4,44.438H23.348A9.228,9.228,0,0,1,14.12,35.21V24.137a9.228,9.228,0,0,1,9.228-9.228H34.409a9.228,9.228,0,0,1,9.228,9.228Z" transform="translate(0.01)" fill="#fff"/>
</svg>
