<svg id="Linkedin" xmlns="http://www.w3.org/2000/svg" width="58.482" height="58.482" viewBox="0 0 58.482 58.482">
  <path id="Path_31" data-name="Path 31" d="M29.243,0A29.241,29.241,0,1,0,58.472,29.237,29.241,29.241,0,0,0,29.243,0ZM21.849,42.627H16.3V24.747h5.549Zm-2.78-20.313a3.236,3.236,0,1,1,3.212-3.248,3.236,3.236,0,0,1-3.212,3.248Zm23.56,20.3H37.08v-8.7c0-2.073,0-4.722-2.888-4.722s-3.332,2.253-3.332,4.578v8.844H25.324V24.747h5.321v2.4h.084a5.8,5.8,0,0,1,5.225-2.84c5.609,0,6.651,3.691,6.651,8.5Z" transform="translate(0.01)" fill="#fff"/>
</svg>
